<?xml version="1.0" encoding="iso-8859-1"?>
<!-- Generator: Adobe Illustrator 19.0.0, SVG Export Plug-In . SVG Version: 6.00 Build 0)  -->
<svg version="1.1" id="Capa_1" xmlns="http://www.w3.org/2000/svg" xmlns:xlink="http://www.w3.org/1999/xlink" x="0px" y="0px"
	 viewBox="0 0 512.002 512.002" style="enable-background:new 0 0 512.002 512.002;" xml:space="preserve">
<path style="fill:#4FD255;" d="M448.181,94.371l-3.589-53.843l-25.488,25.488C327.732-8.848,192.692-3.641,107.401,81.649
	c-25.568,25.568-43.939,55.608-55.115,87.602L7.5,199.212l34.819,9.352c-11.614,71.338,10.072,147.044,65.082,202.054
	c56.495,56.495,134.818,77.845,207.821,64.071l48.415,23.797l-9.324-34.772c29.917-11.314,57.971-29.011,82.056-53.097
	C523.085,323.901,527.018,185.759,448.181,94.371z M370.575,344.822c-12.101,12.101-25.875,21.5-40.573,28.228l-8.538-31.839
	l-28.733,42.916c-42.303,6.355-86.964-6.734-119.534-39.305c-30.621-30.621-44.036-71.931-40.251-111.919l31.813,8.544
	l-22.772-46.374c6.808-17.345,17.192-33.611,31.209-47.629c48.898-48.897,125.033-53.895,179.539-15.059l-23.282,23.282
	l51.522,3.435C424.8,213.899,421.349,294.048,370.575,344.822z"/>
<g>
	<path style="fill:#2CB855;" d="M468.69,186.805c3.993,0.266,7.306-3.047,7.04-7.04l-1.155-17.325l-2.196-32.948
		c-0.07-1.052-0.385-2.075-0.928-2.979c-3.063-5.102-6.341-10.111-9.831-15.015c-3.876-5.447-12.458-2.418-12.014,4.253
		l2.706,40.597c0.266,3.993-3.047,7.306-7.04,7.04L395,160.037c-5.437-0.363-8.949,5.633-5.978,10.202
		c1.828,2.812,3.545,5.676,5.149,8.586c1.08,1.958,3.094,3.219,5.326,3.368l51.868,3.458L468.69,186.805z"/>
	<path style="fill:#2CB855;" d="M290.252,462.415l-29.012-14.26c-4.531-2.227-6.063-7.937-3.254-12.133l25.047-37.411
		c3.777-5.642-0.404-13.172-7.191-12.977c-1.942,0.056-3.885,0.071-5.828,0.046c-2.822-0.037-5.47,1.349-7.04,3.694l-28.415,42.441
		L226,444.599c-2.809,4.196-1.278,9.905,3.253,12.133l13.807,6.787l29.122,14.314c1.191,0.585,2.504,0.887,3.83,0.864
		c3.719-0.065,7.436-0.219,11.149-0.461C295.664,477.68,297.898,466.173,290.252,462.415z"/>
	<path style="fill:#2CB855;" d="M113.407,136.869l22.727,46.284c2.265,4.612,8.835,4.671,11.152,0.085
		c1.639-3.243,3.412-6.436,5.32-9.571c1.098-1.804,1.176-4.05,0.245-5.946l-23.012-46.865l-7.842-15.97
		c-1.664-3.389-5.933-4.535-9.071-2.436l-14.788,9.892L70.636,130.74c-0.825,0.552-1.512,1.29-1.995,2.157
		c-3.188,5.715-6.12,11.535-8.791,17.444c-2.575,5.695,3.982,11.188,9.178,7.713l35.309-23.62
		C107.474,132.334,111.743,133.48,113.407,136.869z"/>
</g>
<path d="M455.589,91.489c-0.029-0.034-0.061-0.064-0.091-0.097l-3.424-51.364c-0.195-2.937-2.091-5.486-4.846-6.521
	c-2.751-1.035-5.858-0.363-7.941,1.717l-20.755,20.755C373.509,21.175,317.597,3.555,260.368,6.292
	c-59.739,2.852-115.948,27.73-158.271,70.054c-25.166,25.166-44.015,54.768-56.023,87.985c-0.008,0.022-0.013,0.045-0.021,0.067
	L3.33,192.979c-2.446,1.636-3.709,4.552-3.23,7.455s2.612,5.258,5.454,6.021l28.357,7.616c-4.641,34.735-1.63,70.503,8.799,103.877
	c11.472,36.715,32.008,70.593,59.386,97.972c45.402,45.401,106.754,70.318,169.935,70.318c13.999,0,28.092-1.224,42.117-3.719
	l46.178,22.698c1.051,0.517,2.182,0.77,3.308,0.77c1.704,0,3.394-0.58,4.764-1.706c2.273-1.868,3.243-4.894,2.482-7.736
	l-7.592-28.312c29.354-12.052,55.698-29.626,78.384-52.312c42.817-42.817,67.726-99.698,70.137-160.164
	C514.205,195.639,494.239,137.301,455.589,91.489z M112.704,86.952c80.157-80.16,205.699-88.3,295.126-20.271l-42.563,42.563
	c-2.929,2.93-2.929,7.678,0,10.607c2.93,2.928,7.678,2.928,10.607,0l62.333-62.334l6.554,98.319l-98.316-6.554l11.616-11.615
	c2.93-2.929,2.93-7.678,0.001-10.606c-0.376-0.377-0.784-0.703-1.213-0.983c-0.065-0.049-0.124-0.103-0.191-0.15
	c-27.977-19.779-62.297-29.143-96.636-26.388c-34.735,2.795-67.454,17.924-92.13,42.599c-10.555,10.556-19.309,22.426-26.15,35.418
	l-24.745-50.395c-0.953-1.941-2.698-3.377-4.787-3.938c-2.086-0.56-4.317-0.194-6.115,1.01l-37.508,25.091
	C79.544,126.26,94.316,105.34,112.704,86.952z M334.869,362.256l-6.162-22.986c-0.762-2.842-3.116-4.977-6.02-5.457
	c-2.901-0.479-5.82,0.781-7.457,3.227l-26.866,40.127c-40.28,5.024-81.134-8.914-109.866-37.647
	c-25.82-25.821-39.623-60.757-38.623-96.989l22.936,6.162c0.645,0.173,1.298,0.257,1.946,0.257c2.209,0,4.347-0.977,5.792-2.735
	c1.869-2.272,2.237-5.429,0.94-8.07l-21.304-43.386c6.617-15.703,16.129-29.827,28.312-42.01
	c43.621-43.622,110.701-51.131,162.475-19.207l-16.825,16.823c-2.081,2.081-2.753,5.187-1.718,7.941
	c1.035,2.755,3.585,4.65,6.521,4.846l48.208,3.214c39.849,52.41,34.978,126.286-11.891,173.154
	C356.195,348.593,345.998,356.216,334.869,362.256z M112.704,405.313C63.6,356.209,39.956,286.731,48.542,218l52.846,14.193
	c3.996,1.071,8.114-1.298,9.189-5.298c1.074-4-1.298-8.114-5.298-9.189l-79.87-21.451l81.901-54.788l43.431,88.448l-15.864-4.262
	c-0.05-0.013-0.099-0.02-0.149-0.032c-0.16-0.039-0.32-0.075-0.485-0.104c-0.117-0.021-0.233-0.036-0.35-0.051
	c-0.081-0.01-0.16-0.028-0.243-0.035c-0.04-0.004-0.08-0.002-0.12-0.005c-0.17-0.014-0.339-0.019-0.508-0.021
	c-0.065-0.001-0.13-0.003-0.195-0.002c-0.222,0.003-0.443,0.017-0.661,0.039c-0.014,0.001-0.027,0.002-0.041,0.004
	c-2.988,0.324-5.612,2.428-6.438,5.504c-0.151,0.563-0.227,1.127-0.247,1.685c-4.005,43.685,11.45,86.486,42.452,117.49
	c16.544,16.543,36.992,29.025,59.134,36.097c14.475,4.622,29.715,6.964,44.957,6.964c1.911,0,3.823-0.041,5.733-0.115
	l-31.269,46.703c-1.203,1.797-1.572,4.026-1.012,6.115c0.561,2.089,1.995,3.834,3.936,4.788l40.377,19.846
	C224.384,475.681,159.502,452.112,112.704,405.313z M431.064,405.314c-20.811,20.811-44.904,37.019-71.699,48.291l-15.597-58.168
	c-1.072-4.001-5.188-6.374-9.187-5.302c-4.001,1.073-6.374,5.186-5.302,9.186l17.781,66.313c0.001,0.003,0.002,0.006,0.002,0.008
	l5.047,18.823l-88.432-43.468l54.82-81.877l4.253,15.867c1.033,3.849,4.88,6.185,8.73,5.4c0.125-0.023,0.249-0.05,0.373-0.08
	c0.028-0.007,0.055-0.01,0.083-0.018c0.034-0.009,0.065-0.022,0.098-0.032c0.4-0.108,0.797-0.239,1.186-0.417
	c15.858-7.273,30.209-17.27,42.654-29.714c49.176-49.178,56.821-125.056,20.415-182.487l56.023,3.735
	c0.167,0.011,0.333,0.017,0.499,0.017c1.982,0,3.892-0.786,5.304-2.196c1.529-1.529,2.323-3.645,2.18-5.803l-2.997-44.957
	C517.789,206.351,507.908,328.471,431.064,405.314z"/>
<g>
</g>
<g>
</g>
<g>
</g>
<g>
</g>
<g>
</g>
<g>
</g>
<g>
</g>
<g>
</g>
<g>
</g>
<g>
</g>
<g>
</g>
<g>
</g>
<g>
</g>
<g>
</g>
<g>
</g>
</svg>
