<svg xmlns="http://www.w3.org/2000/svg" width="1422.354" height="1427.115" viewBox="0 0 1422.354 1427.115">
  <g id="trash" transform="matrix(0.602, 0.799, -0.799, 0.602, 802.825, 0)">
    <path id="Trazado_1" data-name="Trazado 1" d="M893.535,176.079,886.319,67.822l-51.246,51.246C651.36-31.454,379.848-20.985,208.361,150.5A465.855,465.855,0,0,0,97.547,326.633L7.5,386.873l70.007,18.8C54.156,549.109,97.758,701.323,208.361,811.927,321.951,925.516,479.427,968.442,626.207,940.748l97.343,47.846L704.8,918.682A466,466,0,0,0,869.786,811.925C1044.137,637.573,1052.045,359.824,893.535,176.079ZM737.5,679.637a279.966,279.966,0,0,1-81.576,56.755l-17.166-64.015-57.771,86.287A280.6,280.6,0,0,1,259.722,454.612l63.963,17.179L277.9,378.551a279.615,279.615,0,0,1,62.749-95.763c98.315-98.313,251.392-108.362,360.982-30.278L654.82,299.321l103.59,6.906C846.525,416.4,839.587,577.55,737.5,679.637Z" transform="translate(7.58 1.57)" fill="#4fd255"/>
    <g id="Grupo_1" data-name="Grupo 1" transform="translate(119.173 191.771)">
      <path id="Trazado_2" data-name="Trazado 2" d="M550.3,265.753A13.3,13.3,0,0,0,564.453,251.6l-2.322-34.834-4.415-66.245a13.345,13.345,0,0,0-1.866-5.99q-9.237-15.387-19.766-30.189c-7.794-10.952-25.049-4.862-24.156,8.551l5.441,81.625a13.3,13.3,0,0,1-14.155,14.155l-101.077-6.738a13.288,13.288,0,0,0-12.019,20.512q5.513,8.481,10.352,17.263a13.22,13.22,0,0,0,10.709,6.772l104.287,6.953Z" transform="translate(272.88 -94.028)" fill="#4fd255"/>
      <path id="Trazado_3" data-name="Trazado 3" d="M356.613,540.014l-58.331-28.672a16.781,16.781,0,0,1-6.543-24.394L342.1,411.729a16.773,16.773,0,0,0-14.458-26.092q-5.856.17-11.718.092a16.756,16.756,0,0,0-14.155,7.428L244.636,478.49l-17.208,25.7a16.781,16.781,0,0,0,6.541,24.4l27.76,13.646,58.552,28.78a16.821,16.821,0,0,0,7.7,1.737q11.216-.2,22.416-.927C367.494,570.705,371.986,547.57,356.613,540.014Z" transform="translate(107.797 185.854)" fill="#4fd255"/>
      <path id="Trazado_4" data-name="Trazado 4" d="M168.116,172.719l45.7,93.059a12.53,12.53,0,0,0,22.422.171q4.943-9.781,10.7-19.244a12.451,12.451,0,0,0,.493-11.955l-46.268-94.227-15.767-32.109a12.547,12.547,0,0,0-18.238-4.9l-29.733,19.889L82.121,160.4a12.621,12.621,0,0,0-4.011,4.337q-9.615,17.236-17.675,35.073c-5.177,11.45,8.006,22.495,18.453,15.508l70.992-47.49A12.543,12.543,0,0,1,168.116,172.719Z" transform="translate(-59.272 -101.395)" fill="#4fd255"/>
    </g>
    <path id="Trazado_5" data-name="Trazado 5" d="M916.009,177.869c-.058-.068-.122-.129-.183-.195L908.942,74.4a15.081,15.081,0,0,0-25.71-9.659l-41.73,41.73A483.048,483.048,0,0,0,92.637,324.326c-.016.044-.026.09-.042.135L6.7,381.926a15.078,15.078,0,0,0,4.472,27.095l57.015,15.313A483.061,483.061,0,0,0,631.628,964.076l92.846,45.637a15.079,15.079,0,0,0,21.22-17.436l-15.265-56.924A482.935,482.935,0,0,0,916.009,177.869ZM226.6,168.747C387.767,7.577,640.183-8.789,819.985,127.99l-85.577,85.577a15.08,15.08,0,0,0,21.326,21.327L881.061,109.565l13.177,197.681L696.564,294.068l23.355-23.353a15.076,15.076,0,0,0-2.437-23.3c-.131-.1-.249-.207-.384-.3A295.988,295.988,0,0,0,284.987,350.918L235.235,249.594a15.078,15.078,0,0,0-21.92-5.887L137.9,294.155A449.458,449.458,0,0,1,226.6,168.747ZM673.289,722.275,660.9,676.059a15.08,15.08,0,0,0-27.1-4.484l-54.017,80.68a265.5,265.5,0,0,1-298.553-270.7l46.115,12.389A15.078,15.078,0,0,0,344.8,472.737L301.963,385.5a265.769,265.769,0,0,1,383.6-123.083l-33.829,33.824a15.08,15.08,0,0,0,9.657,25.71l96.927,6.462c80.121,105.376,70.327,253.911-23.908,348.144A265.179,265.179,0,0,1,673.289,722.275ZM226.6,808.845c-98.729-98.729-146.267-238.421-129-376.612L203.852,460.77a15.08,15.08,0,1,0,7.823-29.128L51.088,388.512,215.758,278.355,303.081,456.19l-31.9-8.569c-.1-.026-.2-.04-.3-.064-.322-.078-.643-.151-.975-.209-.235-.042-.469-.072-.7-.1-.163-.02-.322-.056-.489-.07-.08-.008-.161,0-.241-.01-.342-.028-.682-.038-1.021-.042-.131,0-.261-.006-.392,0-.446.006-.891.034-1.329.078-.028,0-.054,0-.082.008a15,15,0,0,0-13.441,14.454,295.392,295.392,0,0,0,294.64,322.8q5.763,0,11.527-.231l-62.87,93.9a15.078,15.078,0,0,0,5.879,21.921l81.182,39.9A453.211,453.211,0,0,1,226.6,808.845Zm640.1,0a449.226,449.226,0,0,1-144.159,97.094L691.182,788.989A15.08,15.08,0,0,0,662.05,796.8L697.8,930.127a.064.064,0,0,1,0,.016l10.148,37.846-177.8-87.4L640.372,715.97l8.551,31.9a15.067,15.067,0,0,0,17.553,10.857c.251-.046.5-.1.75-.161.056-.014.111-.02.167-.036s.131-.044.2-.064a15.215,15.215,0,0,0,2.385-.838,294.732,294.732,0,0,0,85.76-59.743c98.873-98.877,114.244-251.438,41.047-366.909l112.64,7.51c.336.022.669.034,1,.034a15.076,15.076,0,0,0,15.047-16.083l-6.026-90.391C1041.069,408.811,1021.2,654.347,866.7,808.847Z" transform="translate(0 -6.015)" fill="#fff"/>
  </g>
</svg>
